<?xml version="1.0" encoding="UTF-8" standalone="no"?>
<!-- Uploaded to: SVG Repo, www.svgrepo.com, Generator: SVG Repo Mixer Tools -->

<svg
   width="738.56769"
   height="491.57812"
   viewBox="0 0 472.68332 314.61"
   version="1.1"
   id="svg1"
   sodipodi:docname="bison-svgrepo-com.svg"
   inkscape:version="1.3.2 (091e20e, 2023-11-25, custom)"
   xmlns:inkscape="http://www.inkscape.org/namespaces/inkscape"
   xmlns:sodipodi="http://sodipodi.sourceforge.net/DTD/sodipodi-0.dtd"
   xmlns="http://www.w3.org/2000/svg"
   xmlns:svg="http://www.w3.org/2000/svg">
  <defs
     id="defs1" />
  <sodipodi:namedview
     id="namedview1"
     pagecolor="#ffffff"
     bordercolor="#000000"
     borderopacity="0.25"
     inkscape:showpageshadow="2"
     inkscape:pageopacity="0.0"
     inkscape:pagecheckerboard="0"
     inkscape:deskcolor="#d1d1d1"
     inkscape:zoom="0.91625"
     inkscape:cx="351.97817"
     inkscape:cy="246.11187"
     inkscape:window-width="1280"
     inkscape:window-height="971"
     inkscape:window-x="-8"
     inkscape:window-y="-8"
     inkscape:window-maximized="1"
     inkscape:current-layer="svg1" />
  <path
     fill="#000000"
     d="m 280.14136,0 c -1.3,0 -2.6,0 -3.9,0.1 -51.6,2.71 -102.1,60.91 -146.9,67.51 -58.689995,8.6 -93.419995,5.5 -98.579995,58.5 -1.56,15.5 -8.47,22.6 -13.19,38.4 -6.73,5.6 -16.83000027,10 -17.24000027,18.7 -0.48,10.2 -1.49000003,20.8 5.99999997,30 l 14.6200003,-9.8 c -0.81,-23.3 5.37,-32.6 14.62,-53.5 3.35,30.2 -4.28,57 -12.3,88.7 3.49,25.8 9.16,52.2 20.61,76 h 35.98 c -21,-23.1 -33.71,-50 -22.11,-76 8.76,-1.2 21.3,-3.5 28.89,-10.6 13.599995,33 17.699995,57 40.099995,86.6 h 40.5 c -20.4,-25.8 -50.8,-36.2 -43.5,-91.1 30.4,0.6 43,6.8 88.1,-5.9 l -2.8,35.6 c 6.8,23.8 24.3,41.7 38.4,61.4 h 38.6 c -17.1,-19.6 -45.1,-30.2 -40.5,-69.2 l 8.7,-24.5 c 21.8,32.6 41.8,65.8 77.9,93.7 h 36 c -22.2,-23.5 -63.8,-48.7 -63,-93.7 22.7,4.5 29.8,9.8 41,6 8.9,23.8 19.1,44.8 37,56.6 21,-23.5 25.5,-35.7 26.2,-66.7 l 22.5,14.2 c 6.3,4.6 19.9,-5.4 18.8,-12.7 l -3.8,-31.5 c 5.7,-11.9 12.9,-23.4 25.5,-33.4 2.6,-26.5 -10,-51.1 -25.1,-76.1 -5.4,-9 -32.2,-6.8 -49.9,-12 -46.6,-26.7 -76.9,-64.97 -117.2,-65.31 z m 73.4,35.61 7.5,14.5 c 11.1,21.5 16.9,31.6 46.6,45.2 5.8,3.4 11.1,8.6 13.1,14 2,5.7 1.8,11.5 0.4,16.8 -2.8,11.1 -15.8,22.6 -25.3,19.7 -32.8,-11 -51.6,-25 -58.9,-42.8 -7.3,-17.8 -1.6,-36.5 8.3,-53.4 z m 0.2,38.1 c -2.7,8.3 -2.9,15.7 -0.2,22.4 4.3,10.4 17.2,21.9 46.2,32 4.1,-6 7.2,-13.2 0.4,-16.4 -18.9,-10 -36.1,-22.5 -46.4,-38 z m 83.6,66.8 c -3,9 -0.6,16.6 4.9,23.6 -7.7,-1.5 -18.1,0.4 -20.2,-7.9 -1.5,-5.9 7.1,-10.8 15.3,-15.7 z"
     id="path1" />
</svg>
