<?xml version="1.0" encoding="UTF-8" standalone="no"?>
<!-- Uploaded to: SVG Repo, www.svgrepo.com, Generator: SVG Repo Mixer Tools -->

<svg
   width="645.38678"
   height="777.36798"
   viewBox="-52.05 0 552.07999 664.98001"
   id="Layer_1"
   version="1.1"
   xml:space="preserve"
   sodipodi:docname="grass-leaf-plant-13-svgrepo-com.svg"
   inkscape:version="1.3.2 (091e20e, 2023-11-25, custom)"
   xmlns:inkscape="http://www.inkscape.org/namespaces/inkscape"
   xmlns:sodipodi="http://sodipodi.sourceforge.net/DTD/sodipodi-0.dtd"
   xmlns:xlink="http://www.w3.org/1999/xlink"
   xmlns="http://www.w3.org/2000/svg"
   xmlns:svg="http://www.w3.org/2000/svg"><defs
   id="defs37" /><sodipodi:namedview
   id="namedview37"
   pagecolor="#ffffff"
   bordercolor="#000000"
   borderopacity="0.25"
   inkscape:showpageshadow="2"
   inkscape:pageopacity="0.0"
   inkscape:pagecheckerboard="0"
   inkscape:deskcolor="#d1d1d1"
   inkscape:zoom="0.91625"
   inkscape:cx="326.87585"
   inkscape:cy="380.35471"
   inkscape:window-width="1280"
   inkscape:window-height="971"
   inkscape:window-x="-8"
   inkscape:window-y="-8"
   inkscape:window-maximized="1"
   inkscape:current-layer="Layer_1" />

<style
   type="text/css"
   id="style1">
	.st0{clip-path:url(#SVGID_2_);}
	.st1{clip-path:url(#SVGID_4_);}
	.st2{clip-path:url(#SVGID_6_);}
	.st3{clip-path:url(#SVGID_8_);}
	.st4{clip-path:url(#SVGID_10_);}
	.st5{clip-path:url(#SVGID_12_);}
	.st6{clip-path:url(#SVGID_14_);}
	.st7{clip-path:url(#SVGID_16_);}
	.st8{clip-path:url(#SVGID_18_);}
	.st9{clip-path:url(#SVGID_20_);}
	.st10{clip-path:url(#SVGID_22_);}
	.st11{clip-path:url(#SVGID_24_);}
	.st12{clip-path:url(#SVGID_26_);}
	.st13{clip-path:url(#SVGID_28_);}
	.st14{clip-path:url(#SVGID_30_);}
	.st15{clip-path:url(#SVGID_32_);}
	.st16{clip-path:url(#SVGID_34_);}
	.st17{clip-path:url(#SVGID_36_);}
	.st18{clip-path:url(#SVGID_38_);}
	.st19{clip-path:url(#SVGID_40_);}
</style>

<g
   id="g37"
   transform="translate(-62.53,-6.16)"
   style="fill-opacity:1">

<defs
   id="defs1">

<rect
   height="684.34003"
   id="SVGID_21_"
   width="580.23999"
   y="0"
   x="0" />

</defs>

<clipPath
   id="SVGID_2_">

<use
   style="overflow:visible"
   xlink:href="#SVGID_21_"
   id="use1" />

</clipPath>

<g
   class="st0"
   clip-path="url(#SVGID_2_)"
   id="g36"
   style="fill-opacity:1">

<path
   d="m 79.66,373.98 c -3.5,-1.72 -6.76,-3.3 -10.03,-4.87 13.51,2.59 25.84,8.21 38.14,13.85 15.99,7.33 30.04,17.82 44.49,27.61 12.15,8.23 24.12,16.76 35.87,25.56 7.63,5.72 14.84,12.02 22,18.33 5.54,4.88 11.53,9.57 15.81,15.43 4.72,6.46 8.03,14.02 11.4,21.34 14.9,32.37 26.95,65.79 35.27,100.4 4.04,16.8 6.42,34.01 9.26,51.08 1.28,7.7 1.87,15.52 2.7,23.29 0.17,1.62 0.03,3.28 0.03,5.13 -4.89,0 -9.75,0 -14.85,0 -0.96,-5.77 -1.96,-11.56 -2.89,-17.36 -4.92,-30.95 -13.02,-61.09 -22.97,-90.8 -9.26,-27.61 -19.81,-54.7 -32.03,-81.15 -3.39,-7.34 -7.01,-14.57 -10.56,-21.84 -0.41,-0.84 -0.89,-1.71 -1.55,-2.34 -6.44,-6.11 -12.93,-12.17 -19.88,-17.93 36.7,73.67 65.4,149.87 79.38,231.43 -6.39,0 -12.11,0 -18.08,0 -0.3,-0.61 -0.74,-1.3 -0.97,-2.04 -5.02,-16.59 -14.09,-30.94 -24.58,-44.58 -16.13,-20.97 -34.14,-40.24 -53.2,-58.55 -10.81,-10.39 -21.67,-20.75 -33.05,-30.5 -8.44,-7.23 -17.76,-13.44 -26.69,-20.1 -0.75,-0.56 -1.5,-1.13 -1.96,-2.05 39.61,20.02 73.19,47.74 103.13,80.06 -28.09,-64.16 -65.25,-122.12 -117.4,-170.19 4.27,2.47 8.69,4.72 12.79,7.45 11.49,7.64 22.14,16.32 32.06,25.92 13.85,13.39 26.08,28.11 37.98,43.19 11.13,14.11 21.44,28.72 28.91,45.01 8.27,18.03 15.71,36.43 23.44,54.7 2.1,4.96 3.92,10.03 6.61,14.93 -0.09,-1.15 0.02,-2.36 -0.31,-3.44 -7.47,-24.69 -16.07,-48.97 -26.36,-72.65 -7.47,-17.21 -14.14,-34.8 -22.36,-51.64 -11.19,-22.91 -23.61,-45.24 -35.34,-67.9 -4.82,-9.32 -12.8,-15.27 -21.17,-20.97 -13.56,-9.2 -27.95,-16.85 -43.04,-23.81 z"
   id="path1"
   style="fill-opacity:1" />

<path
   d="m 532.19,104.57 c 9.84,-5.39 19.34,-10.9 30.37,-13.45 -5.53,5.19 -11.11,10.32 -16.57,15.58 -9.34,9 -18.6,18.06 -27.89,27.12 -14.42,14.07 -26.25,30.28 -38.83,45.89 -18.63,23.1 -33.48,48.58 -47.81,74.35 -11.53,20.74 -22.41,41.84 -33.2,62.97 -5.35,10.48 -9.82,21.4 -14.71,32.1 -13.58,29.72 -24.79,60.35 -34.31,91.54 -4.61,15.1 -7.66,30.66 -11.28,45.46 0.02,0.16 -0.13,-0.4 -0.1,-0.96 1.21,-22.74 1.81,-45.53 3.85,-68.19 1.9,-21.09 7.25,-41.62 12.85,-62.06 10.42,-38.04 25.62,-74.11 45.07,-108.38 8.25,-14.54 17.2,-28.74 26.71,-42.51 9.56,-13.84 19.82,-27.24 32.07,-38.98 10.29,-9.86 20.21,-20.13 30.79,-29.67 13.08,-11.79 27.33,-22.07 42.99,-30.81 z"
   id="path2"
   style="fill-opacity:1" />

<path
   d="m 226.43,271.74 c 9.13,10.48 18.43,20.51 26.92,31.17 7.8,9.79 14.72,20.26 22.03,30.43 0.39,0.55 0.8,1.09 1.84,2.5 0.23,-15.81 1.71,-30.47 7.14,-44.64 0.61,3.84 1.63,7.67 1.76,11.53 0.49,15.42 0.69,30.85 1.03,46.27 0.03,1.28 0.09,2.64 0.55,3.81 4.23,10.95 8.4,21.93 12.92,32.76 2.2,5.27 2.74,10.59 2.84,16.22 0.67,39.28 1.53,78.56 2.32,117.83 0.07,3.37 0.01,6.74 0.01,10.11 -0.32,0.01 -0.64,0.02 -0.96,0.03 -1.19,-13.67 -2.56,-27.33 -3.52,-41.02 -2.02,-28.87 -4.66,-57.57 -15.73,-84.81 -7.62,-18.76 -17.74,-36.14 -28.96,-52.92 -16.17,-24.19 -33.76,-47.34 -54.54,-67.85 -15.07,-14.87 -30.45,-29.46 -46.25,-43.56 -15.4,-13.75 -32.47,-25.39 -49.91,-36.48 -6.17,-3.92 -12.11,-8.18 -18.16,-12.29 0.16,-0.43 0.31,-0.86 0.47,-1.28 3.35,0.58 6.74,1.02 10.05,1.76 24.05,5.37 45.82,16.02 66.33,29.18 22.6,14.49 43,31.77 61.82,51.25 z"
   id="path3"
   style="fill-opacity:1" />

<path
   d="m 424.11,430.57 c 20.26,-18.77 42.25,-34.57 67.63,-45.42 -5.82,4.05 -12.03,7.66 -17.39,12.24 -13.82,11.82 -27.4,23.94 -40.81,36.21 -5.95,5.45 -11.63,11.28 -16.73,17.51 -2.31,2.82 -3.36,6.92 -4.19,10.61 -5.17,23.11 -10.21,46.25 -15.1,69.42 -5.11,24.21 -10.5,48.38 -14.84,72.74 -3.62,20.34 -4.76,40.99 -4.59,61.67 0.02,1.75 0,3.51 0,5.48 -4.16,0 -7.94,0 -12.02,0 -0.08,-0.99 -0.25,-2.01 -0.22,-3.02 0.71,-18.85 0.58,-37.79 2.45,-56.53 1.6,-16.01 5.34,-31.82 8.43,-47.66 3.38,-17.32 7.06,-34.58 10.67,-51.85 2.5,-11.96 5.12,-23.89 7.67,-35.83 0.17,-0.8 0.13,-1.64 0.21,-2.81 -3.99,3.12 -4.72,7.47 -5.61,11.62 -4.12,19.33 -8.15,38.67 -12.14,58.03 -3.31,16.11 -6.52,32.25 -9.77,48.37 -0.36,-0.04 -0.72,-0.07 -1.07,-0.11 0.98,-9.8 1.18,-19.74 3.08,-29.36 4.42,-22.28 9.66,-44.41 14.53,-66.6 0.21,-0.98 0.03,-2.04 0.03,-4.24 -2.63,4.04 -4.82,7.16 -6.75,10.42 -3.41,5.76 -7.14,11.41 -9.79,17.51 -1.73,3.98 -2.41,8.66 -2.51,13.04 -0.48,21.13 -0.53,42.27 -0.88,63.4 -0.41,24.57 -0.98,49.14 -1.48,73.71 -0.01,0.47 -0.11,0.93 -0.22,1.76 -3.13,0 -6.26,0 -10.16,0 0.41,-42.28 0.81,-84.57 1.23,-127.37 -6.21,12.82 -12.23,25.31 -15.03,39.69 -2.33,-6.71 -2.05,-12.96 -0.46,-19.2 3.46,-13.54 9.67,-25.92 15.97,-38.34 10.52,-20.76 22.46,-40.61 36.49,-59.22 9.84,-13.01 20.9,-24.92 33.37,-35.87 z"
   id="path4"
   style="fill-opacity:1" />

<path
   d="m 288.31,221 c 3.3,8.83 6.87,17.27 9.77,25.94 6.28,18.77 11.55,37.85 14.5,57.44 2.84,18.87 4.58,37.87 4.5,56.98 -0.02,3.99 0,7.99 0,12.78 -0.69,-2.35 -1.13,-4.15 -1.74,-5.89 -7.36,-21.01 -14.6,-42.07 -22.17,-63 -9.62,-26.59 -19.32,-53.14 -29.33,-79.58 -12.44,-32.82 -25.71,-65.3 -42.67,-96.16 -10.27,-18.7 -22.99,-35.75 -35.96,-52.64 -0.35,-0.46 -0.63,-0.97 -1.51,-2.35 1.63,0.82 2.42,1.13 3.12,1.59 12.01,7.89 22.39,17.56 31.94,28.25 22.88,25.58 40.7,54.51 57.37,84.22 5.66,10.07 9.86,20.76 12.18,32.42 z"
   id="path5"
   style="fill-opacity:1" />

<path
   d="m 462.97,495.52 c 15.14,-18.14 31.89,-34.37 49.48,-49.72 6.59,-5.75 13.93,-10.65 20.96,-15.89 0.59,-0.44 1.42,-0.58 2.35,-0.61 -50.82,52.92 -93.92,110.85 -120.35,179.86 15.09,-19.49 32.24,-37.02 51.27,-52.68 18.91,-15.57 38.79,-29.79 60.58,-41.33 -4.02,3.19 -8.15,6.27 -12.06,9.6 -12.21,10.39 -24.87,20.33 -36.37,31.45 -14.78,14.28 -28.52,29.6 -42.85,44.33 -14.25,14.65 -25.41,31.43 -34.52,49.53 -3.3,6.55 -5.06,13.87 -7.6,21.05 -3.6,0 -7.74,0 -12.98,0 1.35,-8.11 2.08,-16 4.01,-23.59 7.74,-30.33 19.85,-58.98 34.46,-86.67 12.24,-23.23 27.01,-44.72 43.62,-65.33 z"
   id="path6"
   style="fill-opacity:1" />

<path
   d="m 224.97,397.91 c 12.73,21 23.15,42.88 33.78,64.67 3.89,7.97 9.18,15.26 13.63,22.97 12.19,21.08 24.05,42.32 29.29,66.43 0.57,2.63 1.19,5.25 1.71,7.88 0.14,0.68 0.02,1.4 -0.22,2.19 -6.15,-15.13 -10.26,-31.12 -19.9,-44.86 5.52,51.24 11.03,102.48 16.57,153.92 -4.07,0 -7.95,0 -11.96,0 -0.79,-8.41 -1.47,-16.66 -2.34,-24.88 -1.19,-11.17 -2.59,-22.32 -3.79,-33.49 -1.44,-13.42 -2.76,-26.86 -4.15,-40.29 -1.4,-13.55 -2.88,-27.09 -4.21,-40.65 -0.82,-8.38 -1.96,-16.77 -2.01,-25.16 -0.06,-10.12 -4.61,-18.36 -9.54,-26.57 -1.98,-3.29 -4.23,-6.43 -6.93,-9.42 9.55,24.05 6.11,49.85 11.04,74.5 -6.79,-23.33 -18.2,-44.58 -29.25,-66.04 8.87,7.87 13.94,18.3 19.97,28.06 0.28,-0.1 0.56,-0.2 0.85,-0.31 -0.27,-1.72 -0.44,-3.46 -0.83,-5.16 -0.42,-1.82 -1.04,-3.6 -1.57,-5.39 -9.79,-33.43 -22.47,-65.69 -39.21,-96.36 -13.83,-25.34 -29.55,-49.42 -47.31,-72.19 -14.76,-18.92 -30.12,-37.33 -47.31,-54.15 -7.74,-7.57 -15.79,-14.84 -23.73,-22.21 -0.74,-0.69 -1.7,-1.14 -2.56,-1.71 0.3,-0.33 0.6,-0.65 0.9,-0.98 4.98,3.89 10.15,7.58 14.9,11.72 10.25,8.93 20.61,17.78 30.36,27.23 14.72,14.28 27.79,30.01 40.41,46.16 15.9,20.34 29.88,41.89 43.41,64.09 z"
   id="path7"
   style="fill-opacity:1" />

<path
   d="m 31.85,252.46 c 21.53,7.59 40.29,19.44 58.19,32.84 21.72,16.26 41.6,34.58 59.69,54.62 11.22,12.43 21.15,26.09 30.8,39.79 16.26,23.1 29.83,47.78 41.43,73.5 1.72,3.82 3.13,7.78 4.27,11.98 -4.18,-3.9 -8.25,-7.91 -12.56,-11.66 -6.6,-5.75 -13.34,-11.34 -20.05,-16.96 -6.54,-5.49 -9.81,-13.23 -14.14,-20.23 C 166.26,394.97 152.95,373.67 137.44,353.83 125.74,338.86 113.76,324.1 100,310.92 83.07,294.71 63.91,281.36 43.98,269.09 35.32,263.76 26.39,258.85 17.73,253.52 c -2.67,-1.64 -4.85,-4.07 -7.25,-6.14 0.15,-0.27 0.29,-0.53 0.44,-0.8 6.89,1.93 13.77,3.87 20.93,5.88 z"
   id="path8"
   style="fill-opacity:1" />

<path
   d="m 335.35,201.23 c -1.03,4.16 -2.55,8.28 -3.01,12.5 -1.28,11.77 -2.62,23.58 -3.02,35.4 -0.52,15.53 -0.34,31.09 -0.16,46.64 0.52,44.65 1.08,89.3 1.83,133.95 0.44,26 1.25,51.99 1.93,77.99 0.49,18.87 0.92,37.74 1.6,56.6 1.05,28.82 2.26,57.63 3.49,86.44 0.28,6.63 0.95,13.24 1.46,20.22 -4.42,0 -8.5,0 -12.84,0 -0.31,-7.03 -0.73,-13.99 -0.9,-20.97 -1.09,-44.04 -2.25,-88.08 -3.15,-132.12 -0.62,-30.39 -0.93,-60.79 -1.25,-91.19 -0.29,-27.79 -0.75,-55.58 -0.5,-83.36 0.24,-26.36 0.79,-52.73 2.17,-79.05 1.09,-20.8 3.65,-41.53 5.6,-62.29 0.12,-1.25 0.61,-2.46 0.95,-3.77 1.86,0.99 3.6,1.92 5.58,2.94 0.26,0.1 0.22,0.07 0.22,0.07 z"
   id="path9"
   style="fill-opacity:1" />

<path
   d="m 308.53,533.8 c -0.53,-49.15 -0.79,-97.94 -1.75,-146.72 -0.29,-14.51 -2.55,-28.99 -3.9,-43.48 -0.08,-0.81 -0.13,-1.62 0.45,-2.6 2.9,8.86 5.24,17.96 8.85,26.53 5.01,11.88 4.73,24.19 4.92,36.58 0.69,44.04 1.33,88.08 2.21,132.11 0.5,24.92 1.36,49.84 2.18,74.75 0.61,18.74 1.4,37.48 2.1,56.22 0.04,1.18 0.01,2.37 0.01,3.83 -3.93,0 -7.8,0 -12.54,0 -0.85,-45.59 -1.69,-91.23 -2.53,-137.22 z"
   id="path10"
   style="fill-opacity:1" />

<path
   d="m 355.83,131.8 c -0.28,5.54 -0.26,10.77 -0.99,15.91 -0.3,2.11 -1.92,4.27 -3.46,5.95 -6.81,7.46 -13.82,14.75 -20.73,22.13 -1.34,1.43 -2.54,2.99 -4.44,5.25 0.42,-9.38 0.61,-17.87 1.21,-26.33 1.22,-17.39 2.53,-34.77 4.05,-52.13 1.34,-15.34 2.71,-30.69 4.65,-45.96 1.87,-14.75 4.45,-29.42 6.82,-44.1 0.34,-2.11 1.24,-4.13 1.88,-6.2 0.44,-0.05 0.88,-0.11 1.32,-0.16 1.07,3.3 2.63,6.54 3.12,9.92 1.91,13.2 4.23,26.41 5.02,39.7 1.25,20.93 1.44,41.92 1.97,62.89 0.11,4.25 -0.27,8.53 -0.42,13.13 z"
   id="path11"
   style="fill-opacity:1" />

<path
   d="m 403.56,383.19 c 0.53,0.96 1.05,1.92 1.65,3.02 3.81,-3.26 4.54,-7.02 3.94,-11.99 -1.43,-11.79 -1.31,-23.63 1.29,-35.37 6.07,-27.38 13.87,-54.23 25.9,-79.66 4.77,-10.09 10.77,-19.61 16.22,-29.39 0.28,-0.49 0.67,-0.92 1.7,-1.14 -1.7,6.36 -3.55,12.68 -5.07,19.08 -5.81,24.4 -11.48,48.83 -17.25,73.23 -2.6,10.99 -4.93,22.07 -8.09,32.9 -1.92,6.59 -4.91,12.94 -10.38,17.69 -0.95,0.82 -1.54,2.05 -2.38,3.2 0.88,1.39 1.69,2.67 2.63,4.15 -6.73,9.85 -7.31,21.53 -8.25,32.92 -1.02,12.3 -3.41,24.28 -6.39,36.19 -0.58,2.32 -2.13,4.39 -3.23,6.58 -0.31,-0.1 -0.61,-0.21 -0.92,-0.31 0.87,-5.17 1.78,-10.33 2.6,-15.5 0.96,-6.08 1.94,-12.16 2.69,-18.26 0.2,-1.61 -0.42,-3.32 -0.66,-4.98 -0.41,-0.04 -0.81,-0.08 -1.22,-0.12 1.83,-8.51 3.75,-17 5.44,-25.54 0.4,-2.04 0.04,-4.23 -0.08,-6.54 -0.11,-0.19 -0.14,-0.16 -0.14,-0.16 z"
   id="path12"
   style="fill-opacity:1" />

<path
   d="m 129.3,367.45 c 12.51,16.19 24.87,32.17 37.23,48.15 -0.25,0.26 -0.49,0.51 -0.74,0.77 -3.29,-2.29 -6.56,-4.6 -9.88,-6.85 -7.21,-4.89 -14.7,-9.41 -21.55,-14.75 -3.39,-2.64 -5.92,-6.57 -8.3,-10.25 -15.94,-24.62 -31.74,-49.34 -47.57,-74.03 -0.54,-0.85 -0.94,-1.79 -0.86,-3.26 0.79,0.53 1.72,0.94 2.35,1.62 9.29,10.16 18.82,20.12 27.7,30.62 7.56,8.91 14.34,18.48 21.62,27.98 z"
   id="path13"
   style="fill-opacity:1" />

<path
   d="m 271.82,472.43 c -1.64,-29.26 -0.64,-58.15 2.02,-87.18 2.23,5.22 4.53,10.41 6.63,15.67 0.55,1.37 0.69,2.98 0.67,4.47 -0.21,13.99 -0.85,27.99 -0.65,41.97 0.24,16.9 1.18,33.79 1.76,49.23 -2.58,-5.02 -6.01,-11.47 -9.18,-18.05 -0.84,-1.72 -0.85,-3.84 -1.25,-6.11 z"
   id="path14"
   style="fill-opacity:1" />

<path
   d="m 355.64,473.71 c 0.77,-22.25 5.06,-43.67 9.98,-65.13 0.28,11.31 0.86,22.63 0.75,33.94 -0.14,15.41 -0.83,30.81 -1.2,46.22 -0.13,5.32 -0.59,10.29 -3.65,15.11 -3.75,5.88 -6.48,12.4 -9.07,17.49 1,-14.99 2.08,-31.14 3.19,-47.63 z"
   id="path15"
   style="fill-opacity:1" />

<path
   d="m 290.48,108.49 c 0.4,-3.78 1.95,-6.04 6.58,-5.87 0.85,1.88 2.09,3.87 2.69,6.04 6.49,23.39 13.22,46.73 19.09,70.28 1.69,6.77 0.86,14.16 1.03,21.27 0.02,0.97 -0.83,1.96 -1.27,2.95 -0.33,-0.07 -0.67,-0.14 -1,-0.2 0,-4.23 0,-8.47 0,-12.72 -1.09,0.3 -2.33,0.65 -4.48,1.24 -1.08,-3.97 -2.18,-7.61 -3.06,-11.3 -3.31,-13.91 -6.21,-27.92 -9.93,-41.71 -2.37,-8.79 -5.94,-17.27 -8.92,-25.9 -0.4,-1.22 -0.49,-2.53 -0.73,-4.08 z"
   id="path16"
   style="fill-opacity:1" />

<path
   d="m 443.22,338.37 c 7.56,-9.58 14.93,-18.99 22.34,-28.37 1.03,-1.3 2.16,-2.58 3.47,-3.56 0.93,-0.69 2.74,-1.53 3.28,-1.13 1.06,0.78 2.32,2.6 2.04,3.59 -0.66,2.41 -1.84,4.83 -3.37,6.82 -7.76,10.12 -15.4,20.36 -23.66,30.07 -7.22,8.48 -15.15,16.37 -22.92,24.37 -1.19,1.23 -3.19,1.69 -4.81,2.5 -0.29,-0.23 -0.58,-0.47 -0.87,-0.7 0.74,-1.45 1.28,-3.04 2.25,-4.33 6.51,-8.7 13.11,-17.34 19.68,-26 0.79,-1.03 1.59,-2.06 2.57,-3.26 z"
   id="path17"
   style="fill-opacity:1" />

<path
   d="m 291.97,221.54 c -2.04,-7.23 -4.05,-14.18 -6.16,-21.47 2.99,4.01 5.58,8.07 8.76,11.63 6.4,7.17 13.25,13.94 19.62,21.14 2.36,2.67 4.24,5.91 5.68,9.17 1.16,2.64 0.43,5.44 -2.43,7.04 -2.92,1.64 -6.22,2.21 -8.55,-0.42 -4.03,-4.54 -7.87,-9.32 -11.15,-14.42 -2.45,-3.78 -3.87,-8.23 -5.77,-12.67 z"
   id="path18"
   style="fill-opacity:1" />

<path
   d="m 358.77,212.42 c -2.55,2.58 -4.7,5.45 -7.57,7.05 -1.74,0.97 -4.87,0.58 -6.87,-0.31 -2.43,-1.08 -2.78,-3.8 -1.46,-6.17 2.32,-4.15 4.52,-8.43 7.35,-12.23 7.62,-10.22 15.54,-20.21 23.36,-30.29 0.34,-0.44 0.84,-0.75 1.84,-0.84 -0.79,2.38 -1.5,4.79 -2.38,7.13 -4.05,10.71 -8.12,21.4 -12.25,32.08 -0.45,1.19 -1.27,2.23 -2.02,3.58 z"
   id="path19"
   style="fill-opacity:1" />

<path
   d="m 315.68,210.24 c -0.5,1.21 -0.96,2.15 -1.28,2.81 -5.8,3.36 -10.92,0.83 -12.98,-5.11 -2.46,-7.05 -4.19,-14.35 -6.1,-21.58 -1.32,-4.99 -2.24,-10.09 -3.64,-15.06 -1.39,-4.93 -3.16,-9.75 -4.03,-15.01 2.76,4.89 5.43,9.84 8.31,14.67 5.72,9.6 11.64,19.08 17.3,28.72 1.82,3.1 3.78,6.36 2.42,10.56 z"
   id="path20"
   style="fill-opacity:1" />

<path
   d="m 447.54,361.88 c -5.23,5.2 -10.18,10.32 -15.39,15.18 -1.94,1.81 -4.3,3.54 -6.78,4.34 -3.02,0.96 -4.73,2.58 -5.93,5.36 -0.72,1.67 -2.17,3.03 -3.3,4.55 -1.25,-0.39 -2.22,-0.7 -3.44,-1.08 0.45,2.12 0.89,4.19 1.32,6.27 -0.34,0.07 -0.69,0.14 -1.03,0.2 -1.94,-2.22 -1.68,-5.2 -0.83,-7.68 1.71,-4.99 4,-9.6 9.42,-12.09 2.8,-1.29 5.13,-3.77 7.43,-5.96 9.04,-8.61 17.76,-17.56 27.04,-25.9 5.7,-5.12 12.19,-9.36 18.36,-13.96 0.68,-0.51 1.58,-0.72 2.86,-0.44 -9.86,10.34 -19.7,20.69 -29.73,31.21 z"
   id="path21"
   style="fill-opacity:1" />

<path
   d="m 324.64,188.51 c 6.95,-7.59 13.98,-15.11 20.83,-22.78 8.93,-10 17.59,-20.23 26.64,-30.12 5.03,-5.5 10.6,-10.5 16.09,-15.6 -18.82,23.77 -35.11,49.53 -57.11,70.29 -1.86,-0.46 -3.89,-0.96 -6.17,-1.61 -0.26,-0.15 -0.28,-0.18 -0.28,-0.18 z"
   id="path22"
   style="fill-opacity:1" />

<path
   d="m 365.24,210.38 c 0.84,-1.08 1.56,-1.94 2.28,-2.81 -5.09,12.01 -7.3,25.26 -16.08,35.46 -1.95,2.27 -4.38,4.43 -7.04,5.69 -1.61,0.76 -4.42,0.27 -6.11,-0.68 -2.09,-1.18 -2.92,-3.5 -2.09,-6.2 1.98,-6.45 6.79,-10.74 11.43,-15.13 5.75,-5.46 11.65,-10.75 17.61,-16.33 z"
   id="path23"
   style="fill-opacity:1" />

<path
   d="m 424.65,407.02 c -0.7,0.25 -1.12,0.53 -1.57,0.61 -2.74,0.49 -5.7,1.88 -7.73,-1.34 -1.58,-2.5 -0.73,-6.85 2.18,-9.24 2.67,-2.19 5.61,-4.14 8.68,-5.74 10.91,-5.67 21.92,-11.14 32.89,-16.68 1.44,-0.73 2.92,-1.37 4.78,-1.38 -3.36,2.46 -6.97,4.64 -10.01,7.44 -5.76,5.31 -11.05,11.12 -16.8,16.44 -3.82,3.53 -8.09,6.57 -12.42,9.89 z"
   id="path24"
   style="fill-opacity:1" />

<path
   d="m 389.03,376.71 c 3.07,-10.18 2.85,-20.39 3.42,-30.52 0.23,-3.98 0.79,-7.95 1.6,-11.86 2.63,18.22 5.27,36.44 7.87,54.46 -1.49,2.8 -3.69,3.64 -6.41,3.15 -3.16,-0.56 -6.14,-3.8 -6.56,-7.47 -0.28,-2.45 -0.01,-4.97 0.08,-7.76 z"
   id="path25"
   style="fill-opacity:1" />

<path
   d="m 380.04,370.6 c 2.14,9.04 4.29,17.79 6.28,26.58 0.51,2.24 0.64,4.61 0.63,6.91 -0.01,2.85 -2.12,4.36 -4.55,4.55 -1.89,0.15 -4.89,-0.28 -5.62,-1.49 -1.99,-3.33 -3.67,-7.1 -4.34,-10.89 -1.83,-10.49 2.95,-19.79 6.21,-29.33 0.15,-0.44 0.26,-0.89 0.63,-2.21 0.3,2.44 0.51,4.02 0.76,5.88 z"
   id="path26"
   style="fill-opacity:1" />

<path
   d="m 294.94,141 c 6.31,13.14 10.52,26.6 12.15,40.81 -0.29,0.13 -0.58,0.25 -0.87,0.38 -3.07,-6.7 -6.5,-13.27 -9.14,-20.13 -7.58,-19.73 -16.11,-38.98 -27.37,-56.96 -0.39,-0.62 -0.51,-1.42 -0.34,-2.36 10.22,11.54 18.43,24.38 25.57,38.26 z"
   id="path27"
   style="fill-opacity:1" />

<path
   d="m 432.37,410.94 c 1.54,-0.54 2.84,-0.94 4.99,-1.59 -9.53,14.87 -23.45,24.32 -34.41,36.23 1.04,-5.08 2.11,-10.34 3.21,-15.6 1.29,-6.23 6.36,-9.29 11.17,-12.14 4.63,-2.75 9.84,-4.54 15.04,-6.9 z"
   id="path28"
   style="fill-opacity:1" />

<path
   d="m 373.97,430.17 c -3.63,-10.29 -4.99,-20.67 -5.23,-31.29 2.73,9.04 10.31,14.81 14.86,22.51 1.83,3.1 3.43,6.43 4.46,9.85 0.79,2.63 0.43,5.64 -2.85,6.84 -3.2,1.17 -5.92,-0.15 -7.97,-2.55 -1.29,-1.51 -2.11,-3.4 -3.27,-5.36 z"
   id="path29"
   style="fill-opacity:1" />

<path
   d="m 335.41,201.27 c -2.51,-2.91 -2.51,-6.2 -0.32,-9.01 4.04,-5.19 8.49,-10.07 12.78,-15.07 1.74,-2.02 3.5,-4.02 5.94,-5.7 -0.52,2.45 -0.88,4.95 -1.6,7.34 -1.81,6.02 -3.44,12.12 -5.8,17.93 -2.16,5.31 -4.95,6.12 -10.82,4.38 -0.24,0.09 -0.2,0.12 -0.18,0.13 z"
   id="path30"
   style="fill-opacity:1" />

<path
   d="m 370.71,456.62 c 0.38,-3.74 0.71,-7.16 1.05,-10.57 0.09,0 0.19,0 0.28,-0.01 0,5.19 0,10.39 0,15.58 0.3,0.02 0.59,0.03 0.89,0.05 0.6,-4.54 1.21,-9.09 1.78,-13.4 2.69,10.87 5.13,30.08 -6.52,42.88 0.83,-11.39 1.66,-22.8 2.52,-34.53 z"
   id="path31"
   style="fill-opacity:1" />

<path
   d="m 324.65,188.53 c 3.53,8.69 -0.77,16.99 -1.47,25.47 -0.61,7.38 -1.91,14.69 -2.89,21.89 -6.21,-6.23 -5.3,-3.64 -3.46,-13.97 1.97,-11.05 5.07,-21.89 7.75,-33.12 0.06,-0.29 0.08,-0.26 0.07,-0.27 z"
   id="path32"
   style="fill-opacity:1" />

<path
   d="m 403.6,383.14 c -3.62,-19.2 -4.41,-38.59 -4.53,-58.03 0.31,-0.04 0.62,-0.09 0.93,-0.13 2.44,16.86 4.88,33.71 7.33,50.67 -1.21,0.73 -2.18,1.3 -3.27,1.95 -0.09,1.56 -0.18,3.2 -0.39,5.22 -0.11,0.37 -0.08,0.34 -0.07,0.32 z"
   id="path33"
   style="fill-opacity:1" />

<path
   d="m 390.66,457.71 c -2.27,3.88 -4.41,7.5 -6.61,11.09 -1.02,1.66 -2.15,3.26 -3.23,4.89 -0.32,-0.09 -0.64,-0.19 -0.96,-0.28 2.27,-10.91 4.53,-21.81 6.78,-32.63 4.27,-0.58 5.85,0.8 5.47,4.67 -0.38,4 -0.88,7.99 -1.45,12.26 z"
   id="path34"
   style="fill-opacity:1" />

<path
   d="m 451.45,362.23 c 0.99,-1.2 1.8,-2.22 2.6,-3.25 0.24,0.19 0.48,0.39 0.73,0.58 -2.77,5.77 -4.66,12.25 -8.59,17.08 -2.92,3.59 -8.48,5.06 -12.88,7.44 -0.79,0.43 -1.67,0.69 -3.39,1.39 7.5,-8.1 14.42,-15.59 21.53,-23.24 z"
   id="path35"
   style="fill-opacity:1" />

<path
   d="m 414.62,415.84 c -1.29,2.45 -2.69,4.24 -5.92,2.89 -2.39,-5.34 0.98,-9.97 1.96,-15.41 3.03,3.92 6.13,7.24 3.96,12.52 z"
   id="path36"
   style="fill-opacity:1" />

</g>

</g>

</svg>
