<?xml version="1.0" encoding="UTF-8" standalone="no"?>
<!-- Uploaded to: SVG Repo, www.svgrepo.com, Generator: SVG Repo Mixer Tools -->

<svg
   height="532.71216"
   width="513.27136"
   version="1.1"
   id="Capa_1"
   viewBox="0 0 102.465 106.34599"
   xml:space="preserve"
   sodipodi:docname="storm-svgrepo-com.svg"
   inkscape:version="1.3.2 (091e20e, 2023-11-25, custom)"
   xmlns:inkscape="http://www.inkscape.org/namespaces/inkscape"
   xmlns:sodipodi="http://sodipodi.sourceforge.net/DTD/sodipodi-0.dtd"
   xmlns="http://www.w3.org/2000/svg"
   xmlns:svg="http://www.w3.org/2000/svg"><defs
   id="defs6" /><sodipodi:namedview
   id="namedview6"
   pagecolor="#ffffff"
   bordercolor="#000000"
   borderopacity="0.25"
   inkscape:showpageshadow="2"
   inkscape:pageopacity="0.0"
   inkscape:pagecheckerboard="0"
   inkscape:deskcolor="#d1d1d1"
   inkscape:zoom="0.91625"
   inkscape:cx="257.02592"
   inkscape:cy="295.2251"
   inkscape:window-width="1280"
   inkscape:window-height="971"
   inkscape:window-x="-8"
   inkscape:window-y="-8"
   inkscape:window-maximized="1"
   inkscape:current-layer="g6" />
<g
   id="g6"
   transform="translate(-28.435,-32.822)">
	
	<g
   id="g2">
		<path
   style="fill:#f0f0f0"
   d="m 120.253,59.004 c -1.53,-14.711 -13.965,-26.182 -29.081,-26.182 -2.813,0 -5.531,0.406 -8.105,1.148 11.244,3.251 19.699,13.07 20.943,25.033 6.231,2.43 10.649,8.23 10.649,15.322 0,9.233 -7.486,16.463 -16.719,16.463 9.243,0 16.033,0 16.241,0 9.233,0 16.719,-7.229 16.719,-16.463 0,-7.09 -4.418,-12.891 -10.647,-15.321 z"
   id="path1" />
		<path
   style="fill:#ffffff"
   d="m 114.659,74.327 c 0,-7.092 -4.418,-13.021 -10.649,-15.451 -1.244,-11.962 -9.699,-21.717 -20.943,-24.969 -5.203,1.5 -9.813,4.434 -13.389,8.309 -2.148,-0.838 -4.483,-1.287 -6.928,-1.287 -9.83,0 -17.919,7.438 -18.971,16.986 -8.589,0.7 -15.344,7.637 -15.344,16.408 0,9.232 7.485,16.467 16.719,16.467 0.456,0 32.523,0 52.786,0 9.233,-0.001 16.719,-7.23 16.719,-16.463 z"
   id="path2" />
	</g>
	<g
   id="g5">
		<polygon
   style="fill:#f6d100"
   points="91.843,114.932 85.396,114.932 94.054,96.932 87.422,96.932 70.843,96.932 60.896,124.932 66.422,124.932 73.054,124.932 70.852,131.984 68.633,139.09 98.475,114.932 "
   id="polygon2" />
		<g
   id="g4">
			<polygon
   style="fill:#eac300"
   points="70.852,131.879 68.633,139.168 98.475,114.932 91.843,114.932 "
   id="polygon3" />
			<polygon
   style="fill:#eac300"
   points="87.422,96.932 78.765,114.932 85.396,114.932 94.054,96.932 "
   id="polygon4" />
		</g>
	</g>
</g>
</svg>
