<?xml version="1.0" encoding="UTF-8" standalone="no"?>
<!-- Uploaded to: SVG Repo, www.svgrepo.com, Generator: SVG Repo Mixer Tools -->

<svg
   width="650"
   height="400"
   viewBox="0 0 117 72"
   fill="none"
   version="1.1"
   id="svg3"
   sodipodi:docname="bison-2-svgrepo-com.svg"
   inkscape:version="1.3.2 (091e20e, 2023-11-25, custom)"
   xmlns:inkscape="http://www.inkscape.org/namespaces/inkscape"
   xmlns:sodipodi="http://sodipodi.sourceforge.net/DTD/sodipodi-0.dtd"
   xmlns="http://www.w3.org/2000/svg"
   xmlns:svg="http://www.w3.org/2000/svg">
  <defs
     id="defs3" />
  <sodipodi:namedview
     id="namedview3"
     pagecolor="#ffffff"
     bordercolor="#000000"
     borderopacity="0.25"
     inkscape:showpageshadow="2"
     inkscape:pageopacity="0.0"
     inkscape:pagecheckerboard="0"
     inkscape:deskcolor="#d1d1d1"
     inkscape:zoom="0.91625"
     inkscape:cx="333.42428"
     inkscape:cy="200.27285"
     inkscape:window-width="1280"
     inkscape:window-height="971"
     inkscape:window-x="-8"
     inkscape:window-y="-8"
     inkscape:window-maximized="1"
     inkscape:current-layer="svg3" />
  <path
     d="M 117,60 108,42 V 54 72 H 96 V 52.8 L 78,51 54,57 V 72 H 42 V 57 L 27.69,49.848 15,60 0,51 V 24 C 0,17.37 5.37,12 12,12 H 24 L 41.106,2.202 c 0.534,-0.378 1.11,-0.69 1.71,-0.978 l 0.15,-0.084 h 0.012 C 44.508,0.426 46.2,0 48,0 c 1.098,0 2.136,0.192 3.144,0.468 L 51.186,0.462 93,12 c 0,0 24,7.032 24,18 0,10.968 0,30 0,30 z"
     fill="#6d4c41"
     id="path1" />
  <path
     opacity="0.4"
     d="m 24,30 v -9 c 6.39,0 9,-2.61 9,-9 h 9 c 0,11.442 -6.558,18 -18,18 z"
     fill="#ffffff"
     id="path2" />
  <path
     opacity="0.3"
     d="M 51.186,0.468 51.144,0.474 C 50.136,0.192 49.098,0 48,0 46.2,0 44.508,0.426 42.972,1.134 H 42.96 l -0.144,0.09 c -0.594,0.288 -1.17,0.6 -1.71,0.978 L 24,12 H 12 C 5.37,12 0,17.37 0,24 h 3.69 c 13.254,0 24,10.746 24,24 0,0.69 -0.144,1.332 -0.204,2.01 L 27.69,49.848 42,57 54,63 v -6 -9 c 0,-19.884 16.116,-36 36,-36 1.212,0 2.406,0.066 3.582,0.18 C 93.24,12.072 93,12 93,12 Z M 24,30 v -9 c 6.39,0 9,-2.61 9,-9 h 9 c 0,11.442 -6.558,18 -18,18 z m 93,0 c 0,10.98 0,30 0,30 L 108,42 V 18.6 c 4.86,2.94 9,6.78 9,11.4 z"
     fill="#000000"
     id="path3" />
</svg>
